<svg width="274" height="293" viewBox="0 0 274 293" fill="none" xmlns="http://www.w3.org/2000/svg">
<path d="M168.998 50.321C170.896 47.9672 173.758 46.5988 176.782 46.5988L228.618 46.5988C236.821 46.5988 241.535 55.9327 236.665 62.5348L103.998 242.394C102.113 244.95 99.126 246.458 95.9503 246.458L31.7266 246.458C23.3231 246.458 18.6672 236.722 23.9426 230.181L168.998 50.321Z" fill="#35495E"/>
<path d="M200.497 144.224C202.393 141.811 205.291 140.403 208.359 140.403L253.953 140.403C262.202 140.403 266.903 149.828 261.941 156.418L197.001 242.664C195.112 245.173 192.153 246.649 189.012 246.649L140.578 246.649C132.233 246.649 127.559 237.031 132.715 230.469L200.497 144.224Z" fill="#4FFFD5"/>
<path d="M80.497 42.2238C82.3929 39.8114 85.2913 38.403 88.3594 38.4029L133.953 38.4028C142.202 38.4028 146.903 47.828 141.941 54.418L77.0009 140.664C75.1116 143.173 72.1532 144.649 69.0123 144.649L20.5778 144.649C12.2329 144.649 7.5589 135.031 12.7154 128.469L80.497 42.2238Z" fill="#FF3E00"/>
</svg>
